<svg xmlns="http://www.w3.org/2000/svg" width="39" height="26" fill="none" viewBox="0 0 39 26"><rect width="38.191" height="25.231" y=".406" fill="#ededed" rx="1.91"/><path fill="#00003d" d="M33.418 13.677v-1.326h-2.11v-2.24h-1.51v2.24h-2.11v1.326h2.11v2.256h1.51v-2.256zM11.493 6.228q1.125 0 2.073.258.947.24 1.638.738.69.479 1.066 1.18.395.7.395 1.585 0 1.05-.474 2.01-.453.958-1.342 1.86-.87.904-2.132 1.77-1.263.849-2.843 1.696h6.85v2.489H5.73v-2.489q1.44-.976 2.823-1.898A32 32 0 0 0 11 13.602q1.085-.903 1.737-1.751.651-.849.651-1.678 0-.865-.592-1.272-.592-.424-1.402-.424-.435 0-.868.148a1.9 1.9 0 0 0-.75.442q-.316.314-.514.866-.197.536-.158 1.328H5.887q-.04-1.18.355-2.12a4.4 4.4 0 0 1 1.165-1.585q.75-.645 1.796-.977a7.2 7.2 0 0 1 2.29-.35m10.094 13.585v-8.977H18.33v-2.23a9 9 0 0 0 1.54-.148 4.3 4.3 0 0 0 1.145-.406q.474-.258.79-.645.315-.405.552-.959h2.468v13.365z"/></svg>