<svg xmlns="http://www.w3.org/2000/svg" width="58" height="28" fill="none" viewBox="0 0 58 28"><path fill="#fff" fill-rule="evenodd" d="M13.057.436q.037.357.032.717a5.15 5.15 0 0 1-1.453 3.27c-.392.413-.826.776-1.361.989-.458.184-.936.22-1.418.255H8.85l-.004-.001-.004-.002-.005-.004-.008-.004c.069-2.825 1.486-4.653 4.23-5.22m4.257 7.003-.173.159q-.242.221-.482.447c-.764.725-1.337 1.569-1.54 2.62a4.92 4.92 0 0 0 .898 3.992c.44.6.965 1.097 1.663 1.385l.153.059.112.042-.048.132-.035.1-.007.018-.008.022q-.081.233-.171.46c-.569 1.384-1.308 2.665-2.318 3.776q-.287.308-.617.57c-.734.6-1.561.83-2.494.554-.465-.137-.924-.29-1.387-.433a5.3 5.3 0 0 0-1.46-.277c-.624-.015-1.195.173-1.774.385q-.65.258-1.326.437c-.71.17-1.353-.05-1.941-.45a5.8 5.8 0 0 1-1.47-1.518 15.6 15.6 0 0 1-2.274-4.772 11.1 11.1 0 0 1-.304-4.67c.208-1.391.724-2.646 1.696-3.684 1.01-1.074 2.255-1.516 3.712-1.37.726.072 1.419.283 2.113.486q.194.057.39.104l.1.024.105.026.283.07c.41.092.839.071 1.238-.062q.45-.134.896-.277h.002q.403-.13.807-.251a5.34 5.34 0 0 1 2.583-.155c1.132.22 2.027.83 2.775 1.687l.276.325q.015.018.027.04M27.82 3.444a27 27 0 0 0-4.463.35v17.881h2.325v-7.248c.534.134 1.176.16 1.87.16 2.272 0 4.276-.672 5.508-1.99.908-.939 1.39-2.228 1.39-3.865 0-1.61-.588-2.925-1.577-3.784-1.071-.967-2.756-1.504-5.053-1.504m-.215 9.259c-.774 0-1.416-.05-1.923-.185v-7.04c.4-.104 1.176-.184 2.19-.184 2.567 0 4.25 1.153 4.25 3.543 0 2.497-1.71 3.866-4.516 3.866m15.23 8.97-.184-1.638h-.08c-.722 1.021-2.113 1.934-3.955 1.934-2.619 0-3.955-1.852-3.955-3.732 0-3.138 2.78-4.86 7.776-4.833v-.268c0-1.074-.294-3.007-2.94-3.007-1.202 0-2.458.376-3.366.967l-.535-1.557c1.07-.698 2.62-1.154 4.249-1.154 3.956 0 4.917 2.711 4.917 5.315v4.856c0 1.128.054 2.229.214 3.115zm-.347-6.63c-2.565-.054-5.478.402-5.478 2.925 0 1.53 1.015 2.256 2.218 2.256 1.683 0 2.756-1.075 3.124-2.175.083-.242.128-.496.133-.752zm8.228 1.316L47.884 8.68H45.32l4.78 11.97c.107.294.16.482.16.616 0 .135-.076.323-.184.564a7.2 7.2 0 0 1-1.977 2.632 6.2 6.2 0 0 1-2.057 1.158l.587 1.986c.59-.107 1.738-.51 2.886-1.53 1.604-1.398 2.752-3.678 4.436-8.135l3.528-9.261h-2.485l-2.57 7.624c-.207.611-.392 1.245-.563 1.828-.092.313-.18.611-.263.884h-.054a48 48 0 0 0-.826-2.658" clip-rule="evenodd"/></svg>