<svg xmlns="http://www.w3.org/2000/svg" width="55" height="22" fill="none" viewBox="0 0 55 22"><path fill="#fff" fill-rule="evenodd" d="M9.465 3.864a4.92 4.92 0 0 1 3.449 1.331l2.565-2.535A8.7 8.7 0 0 0 9.465.347a9.07 9.07 0 0 0-4.716 1.321A8.93 8.93 0 0 0 1.435 5.24v.001a8.79 8.79 0 0 0 0 7.974v.003a8.93 8.93 0 0 0 3.314 3.57 9.07 9.07 0 0 0 4.716 1.322v-.004c2.426 0 4.467-.786 5.954-2.143h.014c1.697-1.546 2.674-3.83 2.674-6.533h-.011c.002-.607-.05-1.214-.153-1.812H9.465v3.426h4.863a4.1 4.1 0 0 1-1.796 2.698v.01l-.014-.01c-.806.537-1.844.85-3.053.85-2.344 0-4.333-1.561-5.039-3.665H4.42a5.25 5.25 0 0 1 0-3.398v-.002c.712-2.104 2.701-3.664 5.039-3.664zm16.752 5.015V3.483h3.36c.54-.004 1.07.15 1.521.442.453.293.807.711 1.02 1.203a2.68 2.68 0 0 1-.557 2.952 2.67 2.67 0 0 1-1.985.799zm0 8.157v-6.253h3.321q2.055 0 3.45-1.317a4.5 4.5 0 0 0 1.068-1.485 4.415 4.415 0 0 0-1.067-5.052 4.8 4.8 0 0 0-1.59-1.01 4.9 4.9 0 0 0-1.86-.328h-5.331v15.445zm10.424-2.51a1.6 1.6 0 0 1-.174-.728q0-.861.82-1.443t2.041-.583q1.683-.002 2.622.734a2.88 2.88 0 0 1-.994 2.178c-.6.593-1.413.926-2.262.927a2.47 2.47 0 0 1-1.56-.516 1.6 1.6 0 0 1-.493-.569m5.933-7.23q-1.282-1.175-3.511-1.175-2.862 0-4.321 2.068l1.77 1.1q.985-1.402 2.665-1.402c.717-.01 1.41.248 1.944.722a2.25 2.25 0 0 1 .83 1.759v.453q-1.159-.646-2.95-.646-2.103-.003-3.359.97t-1.255 2.61c-.009.491.093.98.3 1.428.206.448.51.845.891 1.162q1.191 1.037 2.96 1.036 2.075 0 3.32-1.812h.089v1.467h1.914v-6.514q-.005-2.049-1.287-3.225M54.9 6.463l-6.707 15.234h-2.075l2.49-5.33-4.412-9.904h2.185l3.19 7.596h.042l3.102-7.596z" clip-rule="evenodd"/></svg>