<svg xmlns="http://www.w3.org/2000/svg" width="128" height="39" fill="none" viewBox="0 0 128 39"><rect width="126.751" height="36.978" x=".771" y="1.157" stroke="#ededed" stroke-width=".955" rx="4.297"/><path stroke="#ededed" stroke-width=".955" d="M123.27 38.135H5.024c-2.337 0-4.253-1.92-4.253-4.264V5.42c0-2.345 1.916-4.264 4.253-4.264H123.27c2.336 0 4.252 1.919 4.252 4.264v28.45c0 2.345-1.916 4.264-4.252 4.264Z"/><path fill="#ededed" d="M45.151 10.39q0 1.198-.71 1.897c-.53.56-1.23.844-2.08.844a2.86 2.86 0 0 1-2.091-.854c-.577-.569-.86-1.28-.86-2.114 0-.844.283-1.546.86-2.115a2.86 2.86 0 0 1 2.09-.854c.407 0 .795.076 1.164.237.369.162.662.37.89.636l-.502.502c-.379-.445-.89-.673-1.551-.673a2.14 2.14 0 0 0-1.552.635c-.435.418-.653.968-.653 1.641s.218 1.223.653 1.64c.435.418.956.636 1.552.636q.95.002 1.589-.635c.274-.275.435-.664.473-1.157H42.36v-.693h2.752c.02.152.038.294.038.427m4.362-2.369H46.93v1.802h2.327v.683H46.93v1.801h2.582v.702h-3.31V7.32h3.31zm3.075 4.989h-.729V8.02h-1.59v-.7h3.898v.702h-1.589v4.988zm4.408 0V7.32h.728v5.69zm3.963 0h-.728V8.02h-1.59v-.7h3.898v.702H60.95v4.988zm8.969-.742c-.559.578-1.25.863-2.082.863s-1.523-.285-2.08-.863c-.559-.579-.833-1.28-.833-2.106 0-.824.274-1.536.832-2.105.558-.578 1.249-.863 2.081-.863.823 0 1.514.285 2.082.863q.839.868.841 2.105c-.009.835-.283 1.537-.841 2.106m-3.624-.474c.417.426.937.635 1.542.635.606 0 1.126-.209 1.542-.635s.634-.968.634-1.632-.208-1.204-.634-1.63a2.08 2.08 0 0 0-1.542-.645c-.605 0-1.125.208-1.541.635-.417.436-.634.977-.634 1.64 0 .664.217 1.205.633 1.632m5.487 1.216V7.32h.889l2.762 4.428h.028l-.028-1.1V7.319h.728v5.69h-.756l-2.885-4.637h-.029l.029 1.1v3.537z"/><mask id="a" fill="#fff"><path d="M64.75 21.305c-2.222 0-4.038 1.698-4.038 4.03 0 2.324 1.816 4.031 4.039 4.031s4.04-1.707 4.04-4.03c0-2.333-1.817-4.03-4.04-4.03m0 6.477c-1.22 0-2.27-1.005-2.27-2.446 0-1.451 1.05-2.447 2.27-2.447 1.221 0 2.271.996 2.271 2.447 0 1.441-1.06 2.446-2.27 2.446m-8.816-6.477c-2.223 0-4.039 1.698-4.039 4.03 0 2.324 1.816 4.031 4.04 4.031 2.222 0 4.039-1.707 4.039-4.03 0-2.333-1.817-4.03-4.04-4.03m0 6.477c-1.22 0-2.27-1.005-2.27-2.446 0-1.451 1.05-2.447 2.27-2.447s2.27.996 2.27 2.447c0 1.441-1.05 2.446-2.27 2.446m-10.48-5.234v1.707h4.086c-.123.957-.445 1.669-.927 2.152-.596.598-1.523 1.252-3.15 1.252-2.517 0-4.484-2.03-4.484-4.552s1.967-4.552 4.483-4.552c1.353 0 2.346.531 3.075 1.224l1.201-1.205c-1.021-.976-2.374-1.726-4.285-1.726-3.443 0-6.338 2.807-6.338 6.269 0 3.452 2.895 6.268 6.338 6.268 1.864 0 3.264-.607 4.361-1.754 1.126-1.129 1.476-2.722 1.476-4.002 0-.399-.029-.768-.095-1.072h-5.742zm42.86 1.327c-.33-.9-1.352-2.57-3.442-2.57-2.072 0-3.794 1.631-3.794 4.03 0 2.258 1.703 4.031 3.992 4.031 1.845 0 2.914-1.128 3.349-1.783l-1.372-.92c-.454.674-1.078 1.12-1.977 1.12-.898 0-1.542-.418-1.948-1.224l5.382-2.228zm-5.486 1.347c-.047-1.555 1.202-2.352 2.1-2.352.7 0 1.296.351 1.495.854zm-4.37 3.907h1.769V17.275h-1.77zm-2.895-6.923h-.066c-.397-.474-1.154-.9-2.119-.9-2.015 0-3.86 1.773-3.86 4.049 0 2.257 1.845 4.02 3.86 4.02.956 0 1.722-.426 2.119-.92h.057v.58c0 1.545-.823 2.37-2.148 2.37-1.078 0-1.75-.778-2.024-1.432l-1.542.645c.445 1.071 1.618 2.38 3.566 2.38 2.072 0 3.822-1.223 3.822-4.2v-7.246h-1.674v.654zm-2.034 5.576c-1.22 0-2.242-1.024-2.242-2.427 0-1.423 1.022-2.456 2.242-2.456 1.202 0 2.148 1.043 2.148 2.456.01 1.403-.937 2.427-2.148 2.427m23.073-10.507h-4.229V29.13h1.769v-4.495h2.469c1.958 0 3.878-1.422 3.878-3.68 0-2.256-1.939-3.679-3.888-3.679m.037 5.709h-2.506v-4.068h2.506c1.325 0 2.072 1.1 2.072 2.03 0 .928-.747 2.038-2.072 2.038m10.917-1.698c-1.277 0-2.602.57-3.15 1.812l1.57.654c.331-.654.956-.872 1.608-.872.918 0 1.845.55 1.854 1.526v.124a3.94 3.94 0 0 0-1.844-.456c-1.694 0-3.406.93-3.406 2.665 0 1.584 1.381 2.608 2.933 2.608 1.182 0 1.844-.53 2.251-1.157h.057v.92h1.703v-4.542c.009-2.106-1.561-3.282-3.576-3.282m-.218 6.496c-.577 0-1.381-.294-1.381-1.005 0-.91 1.003-1.261 1.873-1.261.776 0 1.145.17 1.608.398a2.136 2.136 0 0 1-2.1 1.868m10.009-6.24-2.025 5.14h-.056l-2.101-5.14h-1.901l3.15 7.189-1.797 3.992h1.844l4.853-11.18zm-15.893 7.587h1.769V17.275h-1.769z"/></mask><path stroke="#ededed" stroke-width="1.91" d="M64.75 21.305c-2.222 0-4.038 1.698-4.038 4.03 0 2.324 1.816 4.031 4.039 4.031s4.04-1.707 4.04-4.03c0-2.333-1.817-4.03-4.04-4.03Zm0 6.477c-1.22 0-2.27-1.005-2.27-2.446 0-1.451 1.05-2.447 2.27-2.447 1.221 0 2.271.996 2.271 2.447 0 1.441-1.06 2.446-2.27 2.446Zm-8.816-6.477c-2.223 0-4.039 1.698-4.039 4.03 0 2.324 1.816 4.031 4.04 4.031 2.222 0 4.039-1.707 4.039-4.03 0-2.333-1.817-4.03-4.04-4.03Zm0 6.477c-1.22 0-2.27-1.005-2.27-2.446 0-1.451 1.05-2.447 2.27-2.447s2.27.996 2.27 2.447c0 1.441-1.05 2.446-2.27 2.446Zm-10.48-5.234v1.707h4.086c-.123.957-.445 1.669-.927 2.152-.596.598-1.523 1.252-3.15 1.252-2.517 0-4.484-2.03-4.484-4.552s1.967-4.552 4.483-4.552c1.353 0 2.346.531 3.075 1.224l1.201-1.205c-1.021-.976-2.374-1.726-4.285-1.726-3.443 0-6.338 2.807-6.338 6.269 0 3.452 2.895 6.268 6.338 6.268 1.864 0 3.264-.607 4.361-1.754 1.126-1.129 1.476-2.722 1.476-4.002 0-.399-.029-.768-.095-1.072h-5.742zm42.86 1.327c-.33-.9-1.352-2.57-3.442-2.57-2.072 0-3.794 1.631-3.794 4.03 0 2.258 1.703 4.031 3.992 4.031 1.845 0 2.914-1.128 3.349-1.783l-1.372-.92c-.454.674-1.078 1.12-1.977 1.12-.898 0-1.542-.418-1.948-1.224l5.382-2.228zm-5.486 1.347c-.047-1.555 1.202-2.352 2.1-2.352.7 0 1.296.351 1.495.854zm-4.37 3.907h1.769V17.275h-1.77zm-2.895-6.923h-.066c-.397-.474-1.154-.9-2.119-.9-2.015 0-3.86 1.773-3.86 4.049 0 2.257 1.845 4.02 3.86 4.02.956 0 1.722-.426 2.119-.92h.057v.58c0 1.545-.823 2.37-2.148 2.37-1.078 0-1.75-.778-2.024-1.432l-1.542.645c.445 1.071 1.618 2.38 3.566 2.38 2.072 0 3.822-1.223 3.822-4.2v-7.246h-1.674v.654zm-2.034 5.576c-1.22 0-2.242-1.024-2.242-2.427 0-1.423 1.022-2.456 2.242-2.456 1.202 0 2.148 1.043 2.148 2.456.01 1.403-.937 2.427-2.148 2.427Zm23.073-10.507h-4.229V29.13h1.769v-4.495h2.469c1.958 0 3.878-1.422 3.878-3.68 0-2.256-1.939-3.679-3.888-3.679Zm.037 5.709h-2.506v-4.068h2.506c1.325 0 2.072 1.1 2.072 2.03 0 .928-.747 2.038-2.072 2.038Zm10.917-1.698c-1.277 0-2.602.57-3.15 1.812l1.57.654c.331-.654.956-.872 1.608-.872.918 0 1.845.55 1.854 1.526v.124a3.94 3.94 0 0 0-1.844-.456c-1.694 0-3.406.93-3.406 2.665 0 1.584 1.381 2.608 2.933 2.608 1.182 0 1.844-.53 2.251-1.157h.057v.92h1.703v-4.542c.009-2.106-1.561-3.282-3.576-3.282Zm-.218 6.496c-.577 0-1.381-.294-1.381-1.005 0-.91 1.003-1.261 1.873-1.261.776 0 1.145.17 1.608.398a2.136 2.136 0 0 1-2.1 1.868Zm10.009-6.24-2.025 5.14h-.056l-2.101-5.14h-1.901l3.15 7.189-1.797 3.992h1.844l4.853-11.18zm-15.893 7.587h1.769V17.275h-1.769z" mask="url(#a)"/><path fill="#ededed" d="M21.543 19.504a.54.54 0 0 0-.163-.382L10.748 8.808a.535.535 0 0 0-.88.216 2 2 0 0 0-.114.66v19.484c0 .404.113.783.336 1.126a.537.537 0 0 0 .828.088l10.467-10.493a.54.54 0 0 0 .158-.384m.607-1.129a.53.53 0 0 0 .752-.005l2.703-2.71a.54.54 0 0 0-.12-.851L12.804 7.848a.537.537 0 0 0-.612.867zm8.422-.774-3.131-1.72a.54.54 0 0 0-.636.092l-3.122 3.13a.54.54 0 0 0 .007.764l3.112 3.02a.54.54 0 0 0 .63.084l3.14-1.724a2.05 2.05 0 0 0 1.077-1.823c0-.77-.402-1.452-1.077-1.823m-7.653 3.013a.535.535 0 0 0-.75.006l-8.91 8.932a.535.535 0 0 0 .636.849l11.57-6.351a.535.535 0 0 0 .114-.857z"/></svg>