<svg xmlns="http://www.w3.org/2000/svg" width="37" height="22" fill="none" viewBox="0 0 37 22"><path fill="#ededed" fill-rule="evenodd" d="M10.889 21.696c2.424 0 4.662-.79 6.464-2.124-2.286-2.15-3.71-5.186-3.71-8.55a11.7 11.7 0 0 1 3.71-8.551A10.83 10.83 0 0 0 10.89.347C4.926.347.092 5.126.092 11.02s4.834 10.675 10.797 10.675M25.576.346c-2.425 0-4.662.79-6.465 2.125 2.286 2.149 3.711 5.185 3.711 8.55s-1.425 6.401-3.71 8.55a10.83 10.83 0 0 0 6.464 2.125c5.963 0 10.797-4.78 10.797-10.675S31.54.347 25.576.347m-3.89 10.675c0-3.091-1.33-5.876-3.453-7.825a10.59 10.59 0 0 0 0 15.65 10.6 10.6 0 0 0 3.453-7.825" clip-rule="evenodd"/></svg>