<svg xmlns="http://www.w3.org/2000/svg" width="40" height="26" fill="none" viewBox="0 0 40 26"><path fill="#ededed" d="M37.182 2.346H2.81v3.072h34.372zm-18.26 6.461-1.787 8.449h-2.162l1.787-8.449zm9.096 5.456 1.138-3.173.655 3.173zm2.413 2.993h2l-1.747-8.449H28.84a.98.98 0 0 0-.921.62l-3.244 7.829h2.27l.451-1.262h2.773zm-5.643-2.758c.009-2.23-3.05-2.353-3.03-3.35.008-.302.293-.625.918-.707.31-.04 1.164-.073 2.132.378l.379-1.793a5.8 5.8 0 0 0-2.023-.373c-2.137 0-3.64 1.148-3.653 2.793-.013 1.216 1.075 1.894 1.892 2.3.844.413 1.126.68 1.122 1.049-.006.567-.673.818-1.293.827-1.088.018-1.718-.297-2.22-.534l-.393 1.852c.506.234 1.439.438 2.404.449 2.272 0 3.758-1.135 3.765-2.891m-8.955-5.69-3.503 8.448h-2.285L8.32 10.513c-.105-.414-.196-.567-.514-.742-.52-.285-1.378-.552-2.133-.718l.051-.246h3.68c.468 0 .89.316.997.861l.91 4.89 2.25-5.75zm21.349 11.817H2.81v3.071h34.372z"/><path stroke="#ededed" stroke-width=".955" d="M1.378.883h37.236v24.276H1.378z"/></svg>